<?xml version="1.0" encoding="UTF-8" standalone="no"?>
<!-- Created with Inkscape (http://www.inkscape.org/) -->

<svg
   xmlns:dc="http://purl.org/dc/elements/1.1/"
   xmlns:cc="http://creativecommons.org/ns#"
   xmlns:rdf="http://www.w3.org/1999/02/22-rdf-syntax-ns#"
   xmlns:svg="http://www.w3.org/2000/svg"
   xmlns="http://www.w3.org/2000/svg"
   xmlns:sodipodi="http://sodipodi.sourceforge.net/DTD/sodipodi-0.dtd"
   xmlns:inkscape="http://www.inkscape.org/namespaces/inkscape"
   width="143.29723"
   height="30"
   viewBox="0 0 37.914057 7.9375002"
   version="1.1"
   id="svg8"
   inkscape:version="0.92.4 (5da689c313, 2019-01-14)"
   sodipodi:docname="logo.svg">
  <defs
     id="defs2" />
  <sodipodi:namedview
     id="base"
     pagecolor="#ffffff"
     bordercolor="#666666"
     borderopacity="1.0"
     inkscape:pageopacity="0.0"
     inkscape:pageshadow="2"
     inkscape:zoom="2.8"
     inkscape:cx="73.523782"
     inkscape:cy="30.659697"
     inkscape:document-units="px"
     inkscape:current-layer="layer1"
     showgrid="false"
     inkscape:pagecheckerboard="true"
     units="px"
     fit-margin-top="0"
     fit-margin-left="0"
     fit-margin-right="0"
     fit-margin-bottom="0"
     inkscape:window-width="1920"
     inkscape:window-height="1001"
     inkscape:window-x="-9"
     inkscape:window-y="-9"
     inkscape:window-maximized="1" />
  <metadata
     id="metadata5">
    <rdf:RDF>
      <cc:Work
         rdf:about="">
        <dc:format>image/svg+xml</dc:format>
        <dc:type
           rdf:resource="http://purl.org/dc/dcmitype/StillImage" />
        <dc:title></dc:title>
      </cc:Work>
    </rdf:RDF>
  </metadata>
  <g
     inkscape:label="Layer 1"
     inkscape:groupmode="layer"
     id="layer1"
     transform="translate(-7.6262109e-6,-289.0625)">
    <flowRoot
       xml:space="preserve"
       id="flowRoot815"
       style="font-style:normal;font-variant:normal;font-weight:normal;font-stretch:normal;font-size:48px;line-height:1.29999995;font-family:sans-serif;-inkscape-font-specification:sans-serif;text-align:start;letter-spacing:0px;word-spacing:0px;text-anchor:start;fill:#000000;fill-opacity:1;stroke:none"
       transform="scale(0.26458333)"><flowRegion
         id="flowRegion817"
         style="font-size:48px"><rect
           id="rect819"
           width="2340"
           height="874.28571"
           x="-1034.2858"
           y="36.805401"
           style="font-size:48px" /></flowRegion><flowPara
         id="flowPara821"></flowPara></flowRoot>    <g
       aria-label="Onbeach"
       transform="matrix(0.22929361,0,0,0.22929361,198.23956,247.5792)"
       style="font-style:normal;font-variant:normal;font-weight:normal;font-stretch:normal;font-size:48px;line-height:1.29999995;font-family:Forte;-inkscape-font-specification:Forte;text-align:start;letter-spacing:0px;word-spacing:0px;text-anchor:start;fill:#000000;fill-opacity:1;stroke:none"
       id="flowRoot823">
      <path
         d="m -850.19922,189.23814 q -1.61719,1.61719 -2.36719,2.67188 -0.72656,1.03125 -1.57031,2.97656 -0.63281,1.40625 -0.91406,2.97656 -0.35156,1.38281 -0.35156,3.5625 0,3.07031 0.58593,5.13281 0.58594,2.03907 1.73438,3.09375 1.14844,1.03125 2.76562,1.03125 1.3125,0 2.67188,-0.96093 1.38281,-0.96094 2.48437,-2.50782 1.125,-1.57031 1.80469,-3.49218 0.67969,-1.92188 0.67969,-3.70313 0,-3.21094 -2.20313,-6.70312 -0.82031,-1.40625 -0.82031,-1.92188 0,-0.96094 1.05469,-1.92187 1.19531,-1.14844 2.74219,-2.03907 1.54687,-0.89062 2.4375,-0.89062 0.51562,0 1.07812,0.25781 0.58594,0.23438 0.89063,0.60938 0.75,0.77343 1.24218,2.85937 0.49219,2.0625 0.49219,4.38281 0,5.53125 -2.27344,10.21875 -2.25,4.66407 -6.14062,7.40625 -3.86719,2.71875 -8.39063,2.71875 -2.60156,0 -5.15625,-0.96093 -2.55468,-0.96094 -4.14843,-2.57813 -2.69532,-2.69531 -2.69532,-7.05469 0,-2.53125 0.98438,-5.36718 0.98437,-2.83594 2.69531,-5.50782 1.73438,-2.69531 3.98438,-4.92187 2.27343,-2.22656 4.66406,-3.51563 2.17969,-1.17187 4.6875,-1.875 2.50781,-0.70312 4.40625,-0.70312 2.67187,0 2.67187,0.82031 0,0.32813 -0.5625,1.00781 -1.03125,0.96094 -1.80468,1.35938 -0.75,0.39844 -2.48438,0.89062 -1.875,0.5625 -2.71875,1.03125 -0.84375,0.44532 -2.15625,1.61719 z"
         style="font-style:normal;font-variant:normal;font-weight:normal;font-stretch:normal;font-family:Forte;-inkscape-font-specification:Forte;fill:#ffaacc"
         id="path835" />
      <path
         d="m -823.97266,202.3397 1.40625,-1.64062 q 2.13282,-2.36719 3.375,-3.51563 1.26563,-1.17187 2.25,-1.6875 1.00782,-0.51562 2.03907,-0.51562 1.66406,0 2.34375,0.89062 0.67968,0.89063 0.67968,3.09375 0,0.91407 -0.1875,2.69532 -0.28125,2.36718 -0.28125,4.45312 0,2.34375 0.23438,3.79688 0.16406,0.89062 0.49219,1.78125 0.23437,0.84375 0.23437,1.14843 0,0.375 -0.28125,0.58594 -0.72656,0.63281 -1.92187,1.10156 -1.19532,0.46875 -2.01563,0.46875 -1.33594,0 -2.4375,-0.91406 -1.07812,-0.91406 -1.6875,-2.53125 -0.58594,-1.61719 -0.58594,-3.65625 0,-1.35937 0.28125,-3.21094 l -0.0937,-0.0937 q -1.00781,1.125 -1.64062,1.78125 -0.60938,0.65625 -1.14844,1.24219 -2.625,3 -4.45312,5.41406 -0.70313,0.9375 -1.28907,1.64063 -0.86718,0.86719 -1.96875,0.86719 -1.5,0 -2.4375,-1.125 -0.9375,-1.125 -0.9375,-2.90625 0,-1.10157 0.25782,-2.69532 0.25781,-1.59375 0.67968,-3.39843 0.44532,-1.82813 1.03125,-3.75 0.60938,-1.92188 1.3125,-3.65625 1.07813,-2.88282 2.625,-4.5 1.05469,-1.05469 2.55469,-1.05469 2.4375,0 2.4375,3.16406 0,2.32031 -0.96094,6.63281 z"
         style="font-style:normal;font-variant:normal;font-weight:normal;font-stretch:normal;font-family:Forte;-inkscape-font-specification:Forte;fill:#ffaacc"
         id="path837" />
      <path
         d="m -796.08203,204.73033 q -0.58594,0.1875 -0.82031,0.1875 -0.82032,0 -1.35938,-0.60938 -0.51562,-0.60937 -0.51562,-1.54687 0,-1.85156 1.3125,-4.78125 1.3125,-2.92969 2.76562,-4.33594 1.05469,-1.05469 2.39063,-1.05469 1.03125,0 1.78125,0.70313 0.75,0.67969 1.14843,1.99219 0.39844,1.28906 0.39844,3.02343 0,4.35938 -1.82812,8.17969 -1.82813,3.82031 -4.875,6.09375 -3.04688,2.27344 -6.53907,2.27344 -2.27343,0 -3.96093,-1.07813 -1.6875,-1.07812 -2.625,-3.09375 -0.91407,-2.03906 -0.91407,-4.71093 0,-2.53125 0.82032,-5.67188 0.82031,-3.16406 2.29687,-6.42187 1.47656,-3.28125 3.51563,-6.375 2.15625,-3.35157 4.94531,-5.22657 1.92187,-1.35937 4.03125,-1.35937 2.15625,0 3.44531,1.3125 1.28906,1.3125 1.28906,3.49219 0,1.54687 -1.19531,3.25781 -1.17187,1.6875 -2.97656,2.78906 -1.78125,1.10156 -3.49219,1.10156 -0.82031,0 -0.82031,-0.42187 0,-0.32813 0.67969,-1.19531 1.125,-1.40625 1.89843,-3.23438 0.77344,-1.85156 0.77344,-3.21094 0,-1.24218 -0.375,-1.24218 -0.46875,0 -1.45312,1.54687 -0.98438,1.54688 -1.75782,3.53906 -1.82812,4.78125 -2.8125,9.09375 -0.98437,4.28907 -0.98437,7.3125 0,2.27344 0.72656,3.84375 0.75,1.54688 1.80469,1.54688 1.33594,0 2.22656,-1.5 0.89063,-1.52344 1.05469,-4.21875 z"
         style="font-style:normal;font-variant:normal;font-weight:normal;font-stretch:normal;font-family:Forte;-inkscape-font-specification:Forte;fill:#ffdd55"
         id="path839" />
      <path
         d="m -778.97266,207.42564 q 1.07813,-0.72656 1.64063,-1.45312 1.24219,-1.52344 1.92187,-3.49219 0.53907,-1.28906 0.84375,-2.88281 0.30469,-1.59375 0.30469,-2.97657 0,-1.28906 -0.53906,-1.28906 -0.75,0 -2.29688,3.30469 -0.91406,1.99219 -1.5,3.98437 -0.5625,1.96875 -0.5625,3.39844 0,0.49219 0.1875,1.40625 z m 0.0469,0.75 q 0.25781,1.40625 1.82812,1.40625 1.75782,0 4.57032,-2.0625 1.64062,-1.19531 2.20312,-1.19531 0.70313,0 1.3125,0.375 0.60938,0.375 0.60938,0.77344 0,0.42187 -0.67969,1.10156 -1.24219,1.24219 -2.85938,2.4375 -1.61718,1.17187 -3.11718,1.96875 -1.5,0.77344 -3,1.24219 -1.5,0.44531 -2.67188,0.44531 -2.92969,0 -4.6875,-1.66406 -1.75781,-1.6875 -1.75781,-4.47657 0,-2.13281 0.91406,-4.80468 0.9375,-2.69532 2.50781,-5.03907 1.85157,-2.74218 4.54688,-4.57031 3.32812,-2.20312 6.375,-2.20312 2.20312,0 3.44531,1.40625 1.26563,1.38281 1.26563,3.82031 0,1.89844 -1.00782,3.96094 -0.98437,2.0625 -2.92968,3.96093 -1.59375,1.59375 -3.14063,2.48438 -1.52344,0.89062 -2.67187,0.89062 -0.51563,0 -1.05469,-0.25781 z"
         style="font-style:normal;font-variant:normal;font-weight:normal;font-stretch:normal;font-family:Forte;-inkscape-font-specification:Forte;fill:#ffdd55"
         id="path841" />
      <path
         d="m -749.06641,202.5272 -0.44531,0.14063 q -1.6875,0.46875 -2.4375,0.46875 -0.91406,0 -0.91406,-0.46875 0,-0.16406 0.375,-0.86719 1.3125,-1.99219 1.3125,-3.75 0,-1.00781 -0.35156,-1.82812 -0.35157,-0.84375 -0.77344,-0.84375 -0.375,0 -1.14844,0.79687 -2.17969,2.36719 -3.46875,4.85156 -1.26562,2.48438 -1.26562,4.42969 0,1.28906 0.51562,2.13281 0.53906,0.84375 1.33594,0.84375 0.67969,0 2.53125,-1.45312 1.875,-1.45313 4.19531,-3.84375 l 0.63281,-0.51563 z m -1.40625,5.36719 v 0.0937 l -0.0937,-0.0937 q -2.17968,2.55469 -4.00781,4.19531 -1.80469,1.61719 -3.35156,2.4375 -1.52344,0.82032 -2.8125,0.82032 -2.625,0 -4.33594,-1.75782 -1.71094,-1.75781 -1.71094,-4.45312 0,-1.66406 0.84375,-3.9375 0.84375,-2.27344 2.32032,-4.45313 2.46093,-3.5625 6.1875,-6.04687 3.84375,-2.55469 7.40625,-2.55469 3,0 4.92187,1.24219 1.94531,1.21875 1.94531,3.09375 0,1.38281 -0.96093,2.92969 1.26562,0 1.59375,0.28125 0.32812,0.25781 0.32812,1.24218 0,-0.0937 -0.11719,0.96094 -0.14062,2.32031 -0.14062,4.33594 0,1.05469 0.0234,1.59375 0.0234,0.53906 0.0937,1.24219 0.0703,0.70312 0.14062,1.125 0.1875,1.10156 0.60938,2.17968 -1.40625,1.38282 -2.69532,2.03907 -1.28906,0.63281 -2.625,0.63281 -3.60937,0 -3.60937,-6.04688 0,-0.70312 0.0469,-1.10156 z"
         style="font-style:normal;font-variant:normal;font-weight:normal;font-stretch:normal;font-family:Forte;-inkscape-font-specification:Forte;fill:#ffdd55"
         id="path843" />
      <path
         d="m -727.15234,192.09752 q 1.78125,0.0703 2.83593,1.03125 1.05469,0.96093 1.05469,2.57812 0,1.40625 -0.82031,2.83594 -0.79688,1.42969 -2.03906,2.34375 -1.21875,0.91406 -2.46094,0.91406 -0.72656,0 -0.72656,-0.51562 0,-0.1875 0.28125,-0.82032 0.91406,-1.54687 0.91406,-3.5625 0,-1.00781 -0.23438,-1.00781 -0.32812,0 -0.9375,0.84375 -0.60937,0.84375 -1.03125,1.99219 -0.72656,1.80469 -1.21875,3.84375 -0.46875,2.03906 -0.46875,3.44531 0,1.59375 0.46875,2.50781 0.49219,0.91407 1.35938,0.91407 0.79687,0 2.13281,-0.84375 1.33594,-0.84375 2.53125,-2.08594 0.49219,-0.63281 0.86719,-0.63281 0.5625,0 0.5625,0.63281 0,2.88281 -2.25,5.22656 -1.54688,1.54688 -3.5625,2.50781 -1.99219,0.9375 -3.58594,0.9375 -2.78906,0 -4.64062,-1.75781 -1.85157,-1.75781 -1.85157,-4.42969 0,-2.67187 1.17188,-5.60156 1.19531,-2.95312 3.23437,-5.60156 2.0625,-2.64844 4.66407,-4.42969 1.875,-1.26562 3.65625,-1.26562 z"
         style="font-style:normal;font-variant:normal;font-weight:normal;font-stretch:normal;font-family:Forte;-inkscape-font-specification:Forte;fill:#ffdd55"
         id="path845" />
      <path
         d="m -705.75391,186.14439 v -0.375 q 0,-0.86719 -0.23437,-0.86719 -0.30469,0 -0.96094,0.9375 -0.63281,0.9375 -1.14844,2.08594 -1.28906,2.92969 -2.27343,6.21094 -0.98438,3.25781 -1.52344,6.51562 -0.1875,1.26563 -0.39844,2.74219 l 0.11719,0.0937 q 2.34375,-2.41406 3.49219,-3.42187 1.14843,-1.00782 2.97656,-2.29688 2.29687,-1.59375 3.79687,-1.59375 0.96094,0 1.47657,0.70313 0.53906,0.67968 0.53906,1.89843 0,0.70313 -0.28125,2.01563 -0.49219,2.76562 -0.49219,4.66406 0,0.86719 0.14063,1.82813 0.11718,0.75 0.77343,3.02343 0.53907,1.73438 0.53907,1.92188 0,0.32812 -0.77344,0.79687 -2.48438,1.64063 -4.57031,1.64063 -1.71094,0 -2.78907,-1.66406 -1.05468,-1.66407 -1.05468,-4.33594 0,-1.05469 0.21093,-2.55469 l -0.11718,-0.0937 q -3.32813,3.42188 -4.45313,4.61719 -4.17187,4.03125 -6.42187,4.03125 -1.03125,0 -1.71094,-1.35938 -0.65625,-1.38281 -0.65625,-3.58593 0,-4.73438 2.92969,-12.09375 1.17187,-2.85938 2.48437,-5.46094 1.3125,-2.625 2.50781,-4.52344 0.86719,-1.33594 1.80469,-2.32031 0.96094,-1.00781 1.92188,-1.66406 0.98437,-0.67969 1.99218,-1.00782 1.00782,-0.32812 2.01563,-0.32812 2.50781,0 4.07812,1.54687 1.59375,1.54688 1.59375,3.96094 0,1.6875 -0.96093,3.58594 -0.96094,1.89844 -2.69532,3.60937 -1.10156,1.07813 -2.50781,1.92188 -1.38281,0.82031 -2.15625,0.82031 -0.23437,0 -0.42187,-0.16406 -0.1875,-0.16406 -0.1875,-0.42188 0,-0.35156 0.60937,-1.52343 0.70313,-1.28907 1.38281,-3.14063 0.67969,-1.875 1.03125,-3.53906 0.375,-1.6875 0.375,-2.83594 z"
         style="font-style:normal;font-variant:normal;font-weight:normal;font-stretch:normal;font-family:Forte;-inkscape-font-specification:Forte;fill:#ffdd55"
         id="path847" />
    </g>
  </g>
</svg>
