<?xml version="1.0" encoding="UTF-8" standalone="no"?>
<svg
   xmlns:dc="http://purl.org/dc/elements/1.1/"
   xmlns:cc="http://creativecommons.org/ns#"
   xmlns:rdf="http://www.w3.org/1999/02/22-rdf-syntax-ns#"
   xmlns:svg="http://www.w3.org/2000/svg"
   xmlns="http://www.w3.org/2000/svg"
   xmlns:sodipodi="http://sodipodi.sourceforge.net/DTD/sodipodi-0.dtd"
   xmlns:inkscape="http://www.inkscape.org/namespaces/inkscape"
   height="22.5pt"
   viewBox="0 0 22.543979 22.5"
   width="22.499994pt"
   version="1.1"
   id="svg20"
   sodipodi:docname="surfboard.svg"
   inkscape:version="0.92.4 (5da689c313, 2019-01-14)">
  <metadata
     id="metadata26">
    <rdf:RDF>
      <cc:Work
         rdf:about="">
        <dc:format>image/svg+xml</dc:format>
        <dc:type
           rdf:resource="http://purl.org/dc/dcmitype/StillImage" />
        <dc:title></dc:title>
      </cc:Work>
    </rdf:RDF>
  </metadata>
  <defs
     id="defs24" />
  <sodipodi:namedview
     pagecolor="#ffffff"
     bordercolor="#666666"
     borderopacity="1"
     objecttolerance="10"
     gridtolerance="10"
     guidetolerance="10"
     inkscape:pageopacity="0"
     inkscape:pageshadow="2"
     inkscape:window-width="1920"
     inkscape:window-height="1001"
     id="namedview22"
     showgrid="false"
     inkscape:zoom="11.084149"
     inkscape:cx="1.5256926"
     inkscape:cy="11.650608"
     inkscape:window-x="-9"
     inkscape:window-y="-9"
     inkscape:window-maximized="1"
     inkscape:current-layer="svg20"
     inkscape:pagecheckerboard="true"
     fit-margin-top="0"
     fit-margin-left="0"
     fit-margin-right="0"
     fit-margin-bottom="0" />
  <path
     d="M 19.933443,0.3146016 12.061829,10.460181 1.2390909,19.008952 0.99261917,18.904544 C 0.50242775,18.697116 0.23394049,18.164104 0.36276622,17.648106 1.1541244,14.477348 3.4690318,10.633726 6.9273751,7.1752102 11.376078,2.7265079 16.462716,0.169265 19.933443,0.3146016 Z m 0,0"
     id="path2"
     inkscape:connector-curvature="0"
     style="fill:#ffaacc;fill-opacity:1;stroke-width:0.04403123"
     inkscape:export-filename="C:\Users\Tony\Desktop\surfboard.png"
     inkscape:export-xdpi="96"
     inkscape:export-ydpi="96" />
  <path
     d="M 15.3468,15.594638 C 11.888456,19.053155 8.0446675,21.368059 4.8740752,22.15925 4.3580842,22.288241 3.8250656,22.019588 3.6176372,21.52957 L 3.513235,21.282919 12.061829,10.460181 22.207587,2.5885684 C 22.352753,6.059471 19.795501,11.146107 15.3468,15.594638 Z m 0,0"
     id="path4"
     style="fill:#ffaacc;fill-opacity:1;stroke-width:0.04403123"
     inkscape:connector-curvature="0"
     inkscape:export-filename="C:\Users\Tony\Desktop\surfboard.png"
     inkscape:export-xdpi="96"
     inkscape:export-ydpi="96" />
  <path
     d="m 22.207587,2.5885684 -0.993454,0.7707231 c -0.546263,3.3209117 -2.96196,7.5687255 -6.747958,11.3548925 -3.458343,3.458346 -7.3019599,5.773249 -10.4727244,6.564612 -0.1611612,0.04029 -0.3238703,0.04166 -0.4779796,0.0098 0.046784,0.110074 0.088063,0.224622 0.1448214,0.33023 0.1542813,0.288436 0.4272405,0.486238 0.7354591,0.550215 0.3599897,0.07483 0.7397591,-0.07311 1.0804851,-0.175782 0.6095573,-0.183856 1.2404424,-0.420359 1.8856029,-0.707072 2.5808146,-1.14705 5.3912455,-3.097669 7.9849605,-5.691384 1.257813,-1.25781 2.41759,-2.616419 3.4408,-4.07186 2.186425,-3.1100468 3.410356,-6.2059929 3.425663,-8.604142 6.87e-4,-0.1116254 -0.0012,-0.2217079 -0.0057,-0.3302389 z m 0,0"
     id="path6"
     style="fill:#cf7b9d;fill-opacity:1;stroke-width:0.04403123"
     inkscape:connector-curvature="0"
     inkscape:export-filename="C:\Users\Tony\Desktop\surfboard.png"
     inkscape:export-xdpi="96"
     inkscape:export-ydpi="96" />
  <path
     d="M 22.207587,2.5885684 3.513235,21.282919 2.9950081,20.05882 C 2.8933579,19.819224 2.7027852,19.628656 2.4631934,19.527008 L 1.2390909,19.008952 19.933443,0.3146016 c 0.552971,0.022886 1.064834,0.1148911 1.526646,0.2784591 0.219295,0.077743 0.39112,0.2495648 0.468864,0.4688642 0.163741,0.4619813 0.255587,0.9738482 0.278634,1.5266435 z m 0,0"
     id="path8"
     inkscape:connector-curvature="0"
     style="fill:#ffdd55;fill-opacity:1;stroke-width:0.04403123"
     inkscape:export-filename="C:\Users\Tony\Desktop\surfboard.png"
     inkscape:export-xdpi="96"
     inkscape:export-ydpi="96" />
  <path
     d="m 21.460089,0.5930607 c -0.09838,-0.034714 -0.209321,-0.068828 -0.314239,-0.097525 0.102854,0.3766787 0.163225,0.7819003 0.181113,1.2124074 0.02494,0.5966638 -0.02993,1.2411302 -0.160645,1.9218965 0,0 1.041269,-1.0412708 1.041269,-1.0412708 -0.0215,-0.5182273 -0.10509,-1.036797 -0.278634,-1.5266439 C 21.851893,0.8445198 21.67732,0.6701176 21.460089,0.5930607 Z m 0,0"
     id="path10"
     inkscape:connector-curvature="0"
     style="fill:#f5c956;stroke-width:0.04403123"
     inkscape:export-filename="C:\Users\Tony\Desktop\surfboard.png"
     inkscape:export-xdpi="96"
     inkscape:export-ydpi="96" />
  <path
     d="m 9.3286256,7.7847732 -0.4471923,0.447187 c -0.1288264,0.129 -0.1288264,0.338151 0,0.466979 0.1238379,0.123831 0.338662,0.128476 0.467143,0 l 0.4471923,-0.447196 c 0.1288264,-0.128828 0.1288264,-0.337979 0,-0.46697 -0.128997,-0.128828 -0.3381452,-0.128828 -0.467143,0 z m 0,0"
     id="path12"
     inkscape:connector-curvature="0"
     style="stroke-width:0.04403123"
     inkscape:export-filename="C:\Users\Tony\Desktop\surfboard.png"
     inkscape:export-xdpi="96"
     inkscape:export-ydpi="96" />
  <path
     d="m 14.29005,13.640582 0.447192,-0.447196 c 0.128998,-0.128999 0.128998,-0.338141 0,-0.46697 -0.128998,-0.128999 -0.338146,-0.128999 -0.466971,0 l -0.447193,0.447196 c -0.128997,0.12882 -0.128997,0.33797 0,0.46697 0.127278,0.127277 0.339694,0.127277 0.466972,0 z m 0,0"
     id="path14"
     inkscape:connector-curvature="0"
     style="stroke-width:0.04403123"
     inkscape:export-filename="C:\Users\Tony\Desktop\surfboard.png"
     inkscape:export-xdpi="96"
     inkscape:export-ydpi="96" />
  <path
     d="m 12.038265,11.079542 c -0.154108,0.01063 -0.310282,-0.05091 -0.427584,-0.168214 -0.117302,-0.117299 -0.178533,-0.273127 -0.168213,-0.427584 0.01239,-0.181971 -0.125213,-0.33935 -0.307187,-0.351556 -0.182488,-0.01243 -0.339522,0.125382 -0.351733,0.307182 -0.02305,0.344853 0.108185,0.686955 0.360161,0.938937 0.245096,0.245262 0.59167,0.383381 0.93876,0.360161 0.181972,-0.01226 0.31957,-0.169593 0.307531,-0.351564 -0.01222,-0.181971 -0.169418,-0.319739 -0.351735,-0.307362 z m 0,0"
     id="path16"
     inkscape:connector-curvature="0"
     style="stroke-width:0.04403123"
     inkscape:export-filename="C:\Users\Tony\Desktop\surfboard.png"
     inkscape:export-xdpi="96"
     inkscape:export-ydpi="96" />
  <path
     d="m 1.1107811,19.312697 1.2237585,0.518056 c 0.1616772,0.06848 0.288267,0.195213 0.3567218,0.356373 l 0.5182269,1.224107 v 1.71e-4 l 0.1044022,0.246471 c 0.22652,0.535258 0.740103,0.864117 1.2951373,0.864117 0.1140339,0 0.2299602,-0.0138 0.34537,-0.04269 1.3451884,-0.335742 2.7835992,-0.929132 4.2753292,-1.76366 0.1590972,-0.0891 0.2160284,-0.290331 0.1269339,-0.449433 -0.089095,-0.159265 -0.290159,-0.216025 -0.4494285,-0.126934 -1.4406465,0.805977 -2.8243622,1.377698 -4.1127917,1.69916 -0.3599896,0.08979 -0.7268594,-0.09442 -0.8723688,-0.438076 L 3.9043565,21.358707 21.864625,3.3984371 c -0.107842,1.5127149 -0.672852,3.2823921 -1.657362,5.1734991 -1.203979,2.3130088 -2.965228,4.6604238 -5.093692,6.7888918 -1.614535,1.614534 -3.332441,3.001515 -5.105557,4.12208 -0.1541099,0.09752 -0.2000329,0.301508 -0.1026824,0.455613 0.097522,0.154114 0.3015104,0.200211 0.4556194,0.102685 1.814396,-1.146699 3.570485,-2.564306 5.219593,-4.213409 4.379903,-4.379899 7.110871,-9.5821209 6.957277,-13.2533972 0,0 0,0 0,-1.714e-4 C 22.513231,1.9847904 22.413296,1.4386979 22.240439,0.9512595 22.129157,0.6370234 21.885093,0.3927899 21.570683,0.2815074 21.083071,0.108648 20.537153,0.0087226 19.947719,-0.0158773 c -1.77e-4,0 -1.77e-4,0 -1.77e-4,0 -1.592863,-0.066771 -3.525765,0.4143415 -5.589042,1.3905983 -0.164944,0.077914 -0.235291,0.2748505 -0.157377,0.4396185 0.07809,0.164948 0.274851,0.2352935 0.439796,0.1573795 1.628296,-0.7705431 3.159586,-1.2177389 4.481898,-1.3135414 L 5.008749,14.772075 1.1632405,18.617591 1.121617,18.60002 C 0.77796695,18.45434 0.59358618,18.087467 0.68354061,17.727477 1.4955384,14.474159 3.8565411,10.713097 7.161291,7.4081722 9.1442445,5.4253931 11.336347,3.7472159 13.500928,2.555277 13.660713,2.4672145 13.71902,2.266498 13.630958,2.10671 13.543067,1.9469305 13.342175,1.8886193 13.182389,1.9766818 10.964145,3.1983806 8.7204436,4.9149063 6.6941474,6.9412022 3.3071826,10.328336 0.88288511,14.201366 0.04267984,17.567517 c -0.16907305,0.677501 0.1762969,1.367379 0.82145756,1.640686 l 0.2464717,0.104228 c 1.717e-4,1.72e-4 1.717e-4,1.72e-4 1.717e-4,1.72e-4 z M 21.618154,1.1718274 c 0.136738,0.386313 0.221532,0.8185344 0.252147,1.2870557 L 3.626581,20.702601 3.2994428,19.929478 C 3.1635652,19.609388 2.9126216,19.358451 2.5923631,19.222569 L 1.8194087,18.895433 2.1496429,18.565194 20.063301,0.6517148 c 0.468348,0.0306 0.900576,0.1154053 1.286882,0.2523163 0.125729,0.044571 0.223251,0.142071 0.267971,0.2677963 z m 0,0"
     id="path18"
     inkscape:connector-curvature="0"
     style="fill:#ac4770;fill-opacity:1;stroke-width:0.04403123"
     inkscape:export-filename="C:\Users\Tony\Desktop\surfboard.png"
     inkscape:export-xdpi="96"
     inkscape:export-ydpi="96" />
</svg>
